<?xml version="1.0" encoding="UTF-8"?>
<svg version="1.1" xmlns="http://www.w3.org/2000/svg" width="830" height="830">
<path d="M0 0 C1.27308014 0.00054382 2.54616028 0.00108765 3.8578186 0.00164795 C24.80772565 0.04265961 45.25812657 1.00704057 65.9375 4.375 C66.59999756 4.48154907 67.26249512 4.58809814 67.94506836 4.69787598 C127.34609787 14.31056527 185.47251064 36.92616812 234.9375 71.375 C235.47503906 71.74802246 236.01257813 72.12104492 236.56640625 72.50537109 C258.96828269 88.10121048 279.42458176 105.80714975 298.75 125.0625 C300.09384766 126.39933838 300.09384766 126.39933838 301.46484375 127.76318359 C306.49582523 132.80636708 311.3382698 137.93549233 315.9375 143.375 C316.47898682 144.00978271 317.02047363 144.64456543 317.57836914 145.29858398 C366.96436954 203.53617089 399.73095575 274.28657101 411.6875 349.6875 C411.98575684 351.56175659 411.98575684 351.56175659 412.29003906 353.47387695 C415.36420775 373.80003776 416.34563766 393.88729504 416.3125 414.4375 C416.31168427 416.34712021 416.31168427 416.34712021 416.31085205 418.2953186 C416.26984039 439.24522565 415.30545943 459.69562657 411.9375 480.375 C411.83095093 481.03749756 411.72440186 481.69999512 411.61462402 482.38256836 C402.00193473 541.78359787 379.38633188 599.91001064 344.9375 649.375 C344.56447754 649.91253906 344.19145508 650.45007813 343.80712891 651.00390625 C327.95631826 673.77202362 309.88945799 694.44192828 290.375 714.125 C289.51277832 715.00027344 288.65055664 715.87554688 287.76220703 716.77734375 C282.54989136 721.99656838 277.15212576 726.79409848 271.39526367 731.40527344 C269.44337197 732.96957882 267.53396426 734.55620588 265.65234375 736.203125 C256.84902638 743.8797168 247.50729946 750.68824311 237.9375 757.375 C237.31681641 757.81166992 236.69613281 758.24833984 236.05664062 758.69824219 C181.62806959 796.7861601 116.81419377 820.70089981 50.9375 828.375 C50.22582672 828.46080322 49.51415344 828.54660645 48.78091431 828.63500977 C33.15150489 830.47874389 17.60123386 830.7753589 1.875 830.75 C0.60191986 830.74945618 -0.67116028 830.74891235 -1.9828186 830.74835205 C-22.93272565 830.70734039 -43.38312657 829.74295943 -64.0625 826.375 C-64.72499756 826.26845093 -65.38749512 826.16190186 -66.07006836 826.05212402 C-125.47109787 816.43943473 -183.59751064 793.82383188 -233.0625 759.375 C-233.60003906 759.00197754 -234.13757813 758.62895508 -234.69140625 758.24462891 C-256.64269659 742.96248059 -276.80613954 725.65692587 -295.78518677 706.82754517 C-297.2069053 705.41773377 -298.63256788 704.01190321 -300.05834961 702.60620117 C-306.1662581 696.50592689 -311.67402269 690.11211462 -317.0625 683.375 C-317.99751758 682.27337384 -318.93885133 681.17702586 -319.890625 680.08984375 C-327.5672168 671.28652638 -334.37574311 661.94479946 -341.0625 652.375 C-341.49916992 651.75431641 -341.93583984 651.13363281 -342.38574219 650.49414062 C-379.20863595 597.8733202 -401.6948825 536.67018826 -411.0625 473.375 C-411.22766113 472.33150391 -411.39282227 471.28800781 -411.56298828 470.21289062 C-417.5436194 431.2985876 -416.38485741 389.19446696 -410.0625 350.375 C-409.95595093 349.71250244 -409.84940186 349.05000488 -409.73962402 348.36743164 C-400.86732147 293.541577 -380.94869263 240.245076 -351.0625 193.375 C-350.68931641 192.78879883 -350.31613281 192.20259766 -349.93164062 191.59863281 C-347.71223598 188.14044228 -345.41068573 184.74675387 -343.0625 181.375 C-342.68947754 180.83746094 -342.31645508 180.29992187 -341.93212891 179.74609375 C-326.64998059 157.79480341 -309.34442587 137.63136046 -290.51504517 118.65231323 C-289.10523377 117.2305947 -287.69940321 115.80493212 -286.29370117 114.37915039 C-280.19342689 108.2712419 -273.79961462 102.76347731 -267.0625 97.375 C-265.96087384 96.43998242 -264.86452586 95.49864867 -263.77734375 94.546875 C-254.97402638 86.8702832 -245.63229946 80.06175689 -236.0625 73.375 C-235.44181641 72.93833008 -234.82113281 72.50166016 -234.18164062 72.05175781 C-183.92965639 36.88652356 -125.17340157 14.20651424 -64.75 4.625 C-62.87574341 4.32674316 -62.87574341 4.32674316 -60.96362305 4.02246094 C-40.63746224 0.94829225 -20.55020496 -0.03313766 0 0 Z " fill="#FDFDFD" transform="translate(414.0625,-0.375)"/>
<path d="M0 0 C4.01653655 3.24741253 7.57568037 6.55478744 10.97607422 10.44482422 C16.03113711 16.10980979 21.35160144 21.4671488 26.73819351 26.81335831 C28.49077485 28.55293757 30.2400038 30.29583035 31.98849487 32.03952026 C35.69782196 35.73753917 39.41110309 39.4315713 43.125 43.125 C47.44203984 47.41829682 51.75736519 51.71328944 56.06847763 56.01253891 C57.77845585 57.71611262 59.49145256 59.41660869 61.20462036 61.11697388 C69.80808269 69.68034059 69.80808269 69.68034059 73.48193359 73.98193359 C77.93588292 79.19311561 82.85040369 83.96099622 87.71192932 88.78709412 C89.50632335 90.56855248 91.29742409 92.35326638 93.08776855 94.13879395 C96.88902275 97.92870266 100.69420588 101.71465097 104.5 105.5 C108.91534185 109.89162221 113.32899248 114.28491726 117.73841858 118.68247986 C119.49049796 120.4281471 121.24559477 122.17073952 123.00085449 123.91320801 C127.87738175 128.76757066 132.63929787 133.65055213 137.11047363 138.88562012 C141.11627024 143.36810626 145.4467609 147.55300756 149.71192932 151.78709412 C151.50632335 153.56855248 153.29742409 155.35326638 155.08776855 157.13879395 C158.88902275 160.92870266 162.69420588 164.71465097 166.5 168.5 C170.91534185 172.89162221 175.32899248 177.28491726 179.73841858 181.68247986 C181.49049796 183.4281471 183.24559477 185.17073952 185.00085449 186.91320801 C189.94543188 191.83550118 194.77481867 196.78855645 199.30749512 202.09823608 C202.74417607 205.95982365 206.52877341 209.48247734 210.25 213.06640625 C212.01015568 214.7847415 213.76923989 216.50417487 215.52734375 218.22460938 C218.27437258 220.9097104 221.02665818 223.58809958 223.79736328 226.2487793 C226.48763515 228.83634549 229.15177343 231.44851382 231.8125 234.06640625 C232.6487793 234.85825821 233.48505859 235.65011017 234.34667969 236.46595764 C239.9657947 242.05667708 239.9657947 242.05667708 240.13256836 246.65600586 C239.57194702 248.31128296 239.57194702 248.31128296 239 250 C238.7119751 251.05058594 238.4239502 252.10117187 238.12719727 253.18359375 C236.95048688 256.79307501 235.7726166 260.40158646 234.5625 264 C234.22928741 264.99558929 234.22928741 264.99558929 233.88934326 266.0112915 C229.63158988 278.67145686 224.70749716 290.91724111 219 303 C218.54399414 303.97098633 218.08798828 304.94197266 217.61816406 305.94238281 C207.16380931 328.00630927 194.69045936 348.51215694 180 368 C179.14041754 369.15739803 178.28103032 370.31494111 177.421875 371.47265625 C159.80315121 394.99835765 139.07848975 416.79724752 116 435 C114.98164062 435.825 113.96328125 436.65 112.9140625 437.5 C76.86777769 466.5435263 35.73935267 487.27404706 -8 502 C-8.92345215 502.31098633 -9.8469043 502.62197266 -10.79833984 502.94238281 C-33.23268803 510.37052101 -56.63690605 513.88646818 -80 517 C-81.24620117 517.18095215 -82.49240234 517.3619043 -83.77636719 517.54833984 C-94.92338902 519.09107016 -105.96671934 519.30779057 -117.20947266 519.26074219 C-120.23230266 519.25006252 -123.2545321 519.26068095 -126.27734375 519.2734375 C-145.29344746 519.28920445 -163.88982753 517.49649431 -182.625 514.3125 C-183.77305618 514.11933701 -183.77305618 514.11933701 -184.94430542 513.92227173 C-222.43094496 507.56063007 -258.36608394 495.557878 -292.09179688 477.98876953 C-294.04815564 476.97504729 -296.0153285 475.98491414 -297.984375 474.99609375 C-316.09302866 465.78998234 -333.07817982 454.59499349 -349 442 C-349.67256836 441.47019531 -350.34513672 440.94039062 -351.03808594 440.39453125 C-359.05822496 434.0507482 -366.8219549 427.51008777 -374.2890625 420.5234375 C-376.73217987 418.24929654 -379.22867738 416.06126314 -381.75 413.875 C-392.80737246 403.9430144 -402.84336674 392.69075686 -412 381 C-412.82242188 379.98421875 -413.64484375 378.9684375 -414.4921875 377.921875 C-443.67518875 341.72744312 -464.71215405 300.54449991 -479.3125 256.5 C-479.62106934 255.59217773 -479.92963867 254.68435547 -480.24755859 253.74902344 C-480.51262207 252.9140332 -480.77768555 252.07904297 -481.05078125 251.21875 C-481.28450439 250.49623047 -481.51822754 249.77371094 -481.7590332 249.02929688 C-482.07567802 246.36267912 -481.34604779 245.30492927 -480 243 C-478.4778595 241.24407959 -478.4778595 241.24407959 -476.67114258 239.45996094 C-475.65417046 238.44805695 -475.65417046 238.44805695 -474.61665344 237.41571045 C-473.88335312 236.69586975 -473.1500528 235.97602905 -472.39453125 235.234375 C-471.63710129 234.48214661 -470.87967133 233.72991821 -470.09928894 232.95489502 C-467.67505694 230.54846775 -465.24427017 228.14880762 -462.8125 225.75 C-460.39940908 223.36466796 -457.98783879 220.97784948 -455.57926941 218.58795166 C-454.08169436 217.10247625 -452.58145555 215.61967962 -451.07807922 214.14007568 C-450.38433701 213.45286438 -449.69059479 212.76565308 -448.97583008 212.05761719 C-448.37563553 211.46567566 -447.77544098 210.87373413 -447.15705872 210.26385498 C-445.30598195 208.32113115 -443.55513015 206.3382777 -441.80485535 204.30584717 C-437.78237059 199.68349346 -433.49186224 195.36600478 -429.14648438 191.04882812 C-427.8597155 189.76424965 -427.8597155 189.76424965 -426.54695129 188.45372009 C-424.21606221 186.12759938 -421.88299632 183.80368839 -419.54907417 181.4806118 C-417.09321564 179.03481476 -414.64066187 176.58570883 -412.18786621 174.13684082 C-405.43336841 167.39432826 -398.6738416 160.65686488 -391.91425323 153.91945648 C-385.71337141 147.73881664 -379.51358811 141.55708509 -373.31786013 135.37127829 C-370.88298537 132.94054447 -368.44705516 130.51088859 -366.0085907 128.08375549 C-363.28796975 125.37515248 -360.57044536 122.66347672 -357.85351562 119.95117188 C-356.6594384 118.76484413 -356.6594384 118.76484413 -355.4412384 117.55455017 C-351.37187546 113.48557056 -347.49727205 109.32640231 -343.74169159 104.96753693 C-340.63417386 101.45706703 -337.2986873 98.17689358 -333.97265625 94.875 C-332.81756058 93.72209473 -332.81756058 93.72209473 -331.63912964 92.54589844 C-329.97992892 90.89047995 -328.31957479 89.23621686 -326.65817261 87.58300781 C-324.02369682 84.96138614 -321.39243675 82.33657422 -318.76196289 79.7109375 C-312.70392984 73.66525466 -306.64123796 67.62425169 -300.57829285 61.58349609 C-294.57176169 55.59883455 -288.56725341 49.61215675 -282.56613159 43.62207031 C-279.98307057 41.04545682 -277.396999 38.47189171 -274.81079102 35.8984375 C-273.21615953 34.30744106 -271.62166969 32.71630263 -270.02734375 31.125 C-269.31544891 30.41827148 -268.60355408 29.71154297 -267.87008667 28.98339844 C-263.91698214 25.03070821 -260.14740473 20.97693837 -256.50805664 16.73291016 C-254.46208131 14.38187683 -252.28264582 12.18598973 -250.0625 10 C-249.29035156 9.236875 -248.51820313 8.47375 -247.72265625 7.6875 C-247.15417969 7.130625 -246.58570313 6.57375 -246 6 C-242.54328007 7.2127814 -240.32782454 8.34641419 -237.875 11.0625 C-235.06038443 14.01028018 -232.1245343 16.58379644 -228.9375 19.125 C-224.4396536 22.7405528 -220.19896457 26.54264479 -216 30.5 C-210.90121293 35.304116 -205.69437219 39.83505658 -200.20703125 44.1953125 C-198.34806572 45.71538697 -196.65490471 47.26423676 -195 49 C-196.30945491 51.88996905 -197.70653071 53.95587003 -199.94790077 56.19399643 C-200.5545103 56.80458806 -201.16111984 57.41517969 -201.78611147 58.04427409 C-202.45341985 58.70575678 -203.12072822 59.36723947 -203.80825806 60.04876709 C-204.51642146 60.75863935 -205.22458487 61.46851161 -205.95420778 62.19989514 C-208.33404438 64.58303228 -210.72097063 66.95893965 -213.10791016 69.33496094 C-214.81304646 71.03953325 -216.5177428 72.74454579 -218.22203064 74.44996643 C-221.89517176 78.12356334 -225.57136571 81.7940756 -229.25035477 85.46181488 C-234.56954768 90.7647531 -239.8832088 96.07320594 -245.19553642 101.38302055 C-253.81460123 109.99770821 -262.43812282 118.60792015 -271.06445312 127.21533203 C-279.44407449 135.57659512 -287.82159253 143.93995639 -296.19628906 152.30615234 C-296.71251385 152.82185168 -297.22873864 153.33755103 -297.7606066 153.86887762 C-300.35034405 156.45600499 -302.94004018 159.04317371 -305.52971578 161.63036299 C-327.01340932 183.09332341 -348.5044122 204.54895153 -370 226 C-365.01683911 232.01400323 -359.62036138 237.51732085 -354.09121704 243.02903748 C-353.08762375 244.03306742 -352.08425048 245.03731733 -351.08107698 246.0417667 C-348.33769143 248.78737868 -345.59121386 251.52987895 -342.84420276 254.27186286 C-339.87722946 257.23450516 -336.9131596 260.20004983 -333.94873047 263.16523743 C-328.81685584 268.29763561 -323.68315801 273.42820421 -318.54820633 278.55752373 C-311.12399149 285.97360078 -303.7025497 293.3924478 -296.28177504 300.81196702 C-284.24107565 312.85047948 -272.19814624 324.88675851 -260.15380859 336.92163086 C-248.45602038 348.6102357 -236.75928615 360.29989361 -225.06396484 371.9909668 C-224.34268825 372.71198066 -223.62141167 373.43299453 -222.87827821 374.1758573 C-219.25973956 377.79309088 -215.64122159 381.41034515 -212.0227139 385.02760971 C-182.01834796 415.02161418 -152.01036032 445.01199325 -122 475 C-118.54855339 473.51392195 -116.31264464 471.56143552 -113.66593552 468.91203117 C-112.80105601 468.05113376 -111.93617651 467.19023636 -111.04508853 466.30325115 C-110.08992634 465.34238299 -109.13485703 464.38142249 -108.17987061 463.42037964 C-107.16214428 462.40352531 -106.14397863 461.38711052 -105.12541127 460.37109864 C-102.32514844 457.57531458 -99.5311713 454.77332118 -96.73816204 451.97029328 C-93.72613894 448.94964565 -90.70835104 445.93476724 -87.69125366 442.91918945 C-82.46385414 437.69283941 -77.24013343 432.46283548 -72.01888275 427.23034286 C-64.46979565 419.66501231 -56.91520204 412.10520033 -49.3592464 404.54673053 C-37.10081714 392.28392236 -24.8468623 380.01665307 -12.59570312 367.74658203 C-0.69374751 355.8262727 11.21030366 343.90806253 23.1171875 331.99267578 C23.85093752 331.25840032 24.58468754 330.52412485 25.3406724 329.76759861 C29.02163699 326.08402398 32.70264291 322.40049064 36.38366938 318.71697783 C66.92885608 288.15105251 97.4667894 257.5778883 128 227 C127.04322782 225.87720161 126.08552344 224.75519753 125.12742615 223.63352966 C124.59420463 223.00862861 124.0609831 222.38372755 123.51160336 221.7398901 C121.80377084 219.77413574 120.01936677 217.92057474 118.16015625 216.09765625 C117.48919922 215.43443359 116.81824219 214.77121094 116.12695312 214.08789062 C114.75459424 212.7414988 113.38219862 211.39514441 112.00976562 210.04882812 C111.33751953 209.38431641 110.66527344 208.71980469 109.97265625 208.03515625 C109.37718994 207.4512915 108.78172363 206.86742676 108.16821289 206.26586914 C106.37592976 204.39286163 104.69922317 202.48720936 103.01733398 200.51733398 C98.41893779 195.23226102 93.44217401 190.33009352 88.4732666 185.39810181 C86.712475 183.65025078 84.95498136 181.89914028 83.19824219 180.1472168 C79.46831875 176.42863649 75.73446563 172.71401796 72 169 C67.66726227 164.69098571 63.33621847 160.38029623 59.00939941 156.06533813 C57.29055956 154.3529083 55.56870188 152.64355488 53.84667969 150.93432617 C45.18747517 142.31523293 45.18747517 142.31523293 41.51367188 138.01367188 C37.06152787 132.80370182 32.14810653 128.03752486 27.28807068 123.21290588 C25.49367665 121.43144752 23.70257591 119.64673362 21.91223145 117.86120605 C18.11097725 114.07129734 14.30579412 110.28534903 10.5 106.5 C6.08465815 102.10837779 1.67100752 97.71508274 -2.73841858 93.31752014 C-4.49049796 91.5718529 -6.24559477 89.82926048 -8.00085449 88.08679199 C-13.04742432 83.06315705 -18.00643345 78.0157547 -22.63198853 72.59509277 C-24.32552553 70.62043927 -26.11761407 68.76838251 -27.96484375 66.9375 C-28.61904297 66.28652344 -29.27324219 65.63554687 -29.94726562 64.96484375 C-30.60404297 64.31644531 -31.26082031 63.66804688 -31.9375 63 C-32.62134766 62.32066406 -33.30519531 61.64132812 -34.00976562 60.94140625 C-35.67087159 59.29191641 -37.33428513 57.6448332 -39 56 C-37.436656 51.18122202 -34.68884685 47.69456346 -31.625 43.75 C-27.32369902 38.11677131 -23.12700437 32.43153169 -19.0625 26.625 C-12.79840833 17.68450881 -6.40995313 8.83631076 0 0 Z " fill="#523C30" transform="translate(536,271)"/>
<path d="M0 0 C1.19415527 0.37253906 2.38831055 0.74507812 3.61865234 1.12890625 C21.53082306 6.75867363 39.01597571 12.93596725 56 21 C56.96663574 21.45455566 57.93327148 21.90911133 58.92919922 22.37744141 C80.97244622 32.82048789 101.58288674 45.23900703 121 60 C121.62696777 60.4753418 122.25393555 60.95068359 122.89990234 61.44042969 C146.88460771 79.72484898 169.29486308 100.28455854 188 124 C188.825 125.01835937 189.65 126.03671875 190.5 127.0859375 C204.40743498 144.34335728 216.15623233 162.68957318 227 182 C227.39912598 182.69899414 227.79825195 183.39798828 228.20947266 184.11816406 C243.07636027 210.18144101 253.39903371 239.05484525 261 268 C261.18900879 268.69899414 261.37801758 269.39798828 261.57275391 270.11816406 C265.67311779 285.40100182 269.27627884 302.15952316 269 318 C254.61465963 305.90323651 241.4811021 292.57518698 228.25 279.25 C225.34752636 276.32699711 222.44438856 273.40467365 219.53729248 270.48626709 C217.74067129 268.68220795 215.94629757 266.87590671 214.15460205 265.06695557 C210.54012102 261.43794182 206.92362101 257.87301158 203.03613281 254.53613281 C197.98322583 250.19299134 193.34395266 245.44883062 188.65625 240.71875 C187.67823581 239.73631622 186.69991749 238.75418512 185.72131348 237.77233887 C182.12501016 234.16280682 178.53423404 230.54779294 174.94329834 226.93292236 C171.89644421 223.8661925 168.84744874 220.80162086 165.79570007 217.73976135 C164.38241371 216.32008843 162.97222889 214.89733001 161.56213379 213.4744873 C157.80026003 209.69840406 154.04560746 205.97271061 150 202.5 C144.95720495 198.17131314 140.33187824 193.43664705 135.65625 188.71875 C134.67823581 187.73631622 133.69991749 186.75418512 132.72131348 185.77233887 C129.12501016 182.16280682 125.53423404 178.54779294 121.94329834 174.93292236 C118.89644421 171.8661925 115.84744874 168.80162086 112.79570007 165.73976135 C111.38241371 164.32008843 109.97222889 162.89733001 108.56213379 161.4744873 C104.80026003 157.69840406 101.04560746 153.97271061 97 150.5 C91.95720495 146.17131314 87.33187824 141.43664705 82.65625 136.71875 C81.67823581 135.73631622 80.69991749 134.75418512 79.72131348 133.77233887 C76.12501016 130.16280682 72.53423404 126.54779294 68.94329834 122.93292236 C65.89644421 119.8661925 62.84744874 116.80162086 59.79570007 113.73976135 C58.38241371 112.32008843 56.97222889 110.89733001 55.56213379 109.4744873 C51.10272507 104.99823435 46.58798779 100.68006171 41.79284668 96.56576538 C39.06492691 94.18336293 36.51509144 91.63991934 33.96875 89.06640625 C33.18667175 88.28220558 33.18667175 88.28220558 32.38879395 87.48216248 C30.75678922 85.84465002 29.12833426 84.20366151 27.5 82.5625 C26.38044368 81.4379167 25.26065371 80.31356595 24.140625 79.18945312 C21.42438466 76.46230656 18.71131708 73.73204093 16 71 C12.02755968 74.34057337 8.18113002 77.70942181 4.5625 81.4375 C1.89437481 84.14143895 -0.78809696 86.73415897 -3.6875 89.1875 C-7.6655944 92.59160082 -11.3199934 96.28127686 -15 100 C-22.28074702 107.35686566 -22.28074702 107.35686566 -25.9375 110.4375 C-30.02621151 113.89038596 -33.73734698 117.70077198 -37.5 121.5 C-41.82328655 125.8653112 -46.14676831 130.10613961 -50.84765625 134.06640625 C-54.0235268 136.9195023 -56.99759552 139.96623062 -60 143 C-67.28110202 150.35716473 -67.28110202 150.35716473 -70.9375 153.4375 C-75.7442407 157.49675619 -80.07306887 162.04932199 -84.49609375 166.515625 C-88.27840743 170.32072371 -92.11274587 173.97550971 -96.21484375 177.4375 C-99.649382 180.44366039 -102.812424 183.73612564 -106 187 C-109.62077274 185.46901121 -111.93090295 183.31585971 -114.69500732 180.54550171 C-115.15169934 180.09051855 -115.60839135 179.63553539 -116.07892251 179.16676486 C-117.60525765 177.64371927 -119.12434275 176.11364455 -120.64355469 174.58349609 C-121.7372972 173.48918935 -122.83148048 172.39532298 -123.92607117 171.30186462 C-126.89511071 168.33339913 -129.85794139 165.35880551 -132.81970501 162.38308287 C-135.91644932 159.27384007 -139.01885445 156.17025626 -142.1206665 153.06607056 C-147.99297582 147.18754389 -153.86016807 141.30393733 -159.72554421 135.41849387 C-166.40354662 128.71814043 -173.08722572 122.02346192 -179.77139044 115.32925677 C-193.52059148 101.55914795 -207.26263862 87.78191984 -221 74 C-222.10031349 74.93217368 -223.199039 75.86622191 -224.29711914 76.80102539 C-224.90914688 77.32096573 -225.52117462 77.84090607 -226.15174866 78.37660217 C-229.61897312 81.42201301 -232.79640997 84.75583914 -236.01757812 88.05664062 C-238.77516609 90.85453438 -241.57268182 93.52170096 -244.56640625 96.06640625 C-250.8793716 101.52081435 -256.63808421 107.57130893 -262.5 113.5 C-275.69437621 126.8446783 -275.69437621 126.8446783 -281.88085938 132.10351562 C-287.1504167 136.81940518 -292.03090104 141.9719123 -297 147 C-309.63402461 159.78400456 -309.63402461 159.78400456 -313.96875 163.46875 C-320.17433586 168.75065327 -325.77500977 174.70979426 -331.5 180.5 C-344.69437621 193.8446783 -344.69437621 193.8446783 -350.88085938 199.10351562 C-356.1504167 203.81940518 -361.03090104 208.9719123 -366 214 C-378.63402461 226.78400456 -378.63402461 226.78400456 -382.96875 230.46875 C-389.17433586 235.75065327 -394.77500977 241.70979426 -400.5 247.5 C-413.69437621 260.8446783 -413.69437621 260.8446783 -419.88085938 266.10351562 C-425.1504167 270.81940518 -430.03090104 275.9719123 -435 281 C-447.84694949 293.99945709 -447.84694949 293.99945709 -454.08251953 299.30517578 C-458.05596281 302.8172261 -461.71988161 306.65898696 -465.4375 310.4375 C-467.03809217 312.06343804 -468.64083187 313.68726587 -470.24609375 315.30859375 C-470.94404053 316.01814209 -471.6419873 316.72769043 -472.36108398 317.45874023 C-474 319 -474 319 -475 319 C-473.85161163 278.92124601 -460.28874871 237.82844585 -443 202 C-442.67322266 201.31615234 -442.34644531 200.63230469 -442.00976562 199.92773438 C-439.75916997 195.23937386 -437.41287663 190.60678736 -435 186 C-434.59555664 185.22688477 -434.19111328 184.45376953 -433.77441406 183.65722656 C-411.03846076 140.52905629 -378.39119736 100.17624785 -340 70 C-338.98292969 69.17628906 -337.96585938 68.35257812 -336.91796875 67.50390625 C-319.6609525 53.59331733 -301.31173656 41.84450316 -282 31 C-281.30100586 30.60087402 -280.60201172 30.20174805 -279.88183594 29.79052734 C-253.81289104 14.92040665 -224.94543724 4.61818109 -196 -3 C-195.32759277 -3.18369141 -194.65518555 -3.36738281 -193.96240234 -3.55664062 C-178.60641313 -7.72865703 -162.73279696 -9.77862983 -147 -12 C-146.0517334 -12.13712402 -145.1034668 -12.27424805 -144.12646484 -12.41552734 C-97.72460294 -18.86756109 -44.68658299 -14.00823477 0 0 Z " fill="#894832" transform="translate(518,54)"/>
<path d="M0 0 C3.62077274 1.53098879 5.93090295 3.68414029 8.69500732 6.45449829 C9.38004534 7.13697303 9.38004534 7.13697303 10.07892251 7.83323514 C11.60525765 9.35628073 13.12434275 10.88635545 14.64355469 12.41650391 C15.7372972 13.51081065 16.83148048 14.60467702 17.92607117 15.69813538 C20.89511071 18.66660087 23.85794139 21.64119449 26.81970501 24.61691713 C29.91644932 27.72615993 33.01885445 30.82974374 36.1206665 33.93392944 C41.99297582 39.81245611 47.86016807 45.69606267 53.72554421 51.58150613 C60.40354662 58.28185957 67.08722572 64.97653808 73.77139044 71.67074323 C87.52059148 85.44085205 101.26263862 99.21808016 115 113 C109.85042578 119.23265924 104.2203721 124.9146982 98.49658203 130.61694336 C97.44130823 131.67193464 96.38625547 132.72714706 95.33140564 133.78256226 C92.48491224 136.62934106 89.63535925 139.47303894 86.78522348 142.31617045 C83.80056205 145.29455549 80.81875638 148.27579684 77.8366394 151.25672913 C72.19708118 156.89318663 66.55498002 162.52709145 60.91194808 168.16007096 C54.48431277 174.57650594 48.05953682 180.99580077 41.63499284 187.41533077 C28.42649513 200.61339261 15.21443242 213.80788037 2 227 C-1.62077274 225.46901121 -3.93090295 223.31585971 -6.69500732 220.54550171 C-7.15169934 220.09051855 -7.60839135 219.63553539 -8.07892251 219.16676486 C-9.60525765 217.64371927 -11.12434275 216.11364455 -12.64355469 214.58349609 C-13.7372972 213.48918935 -14.83148048 212.39532298 -15.92607117 211.30186462 C-18.89511071 208.33339913 -21.85794139 205.35880551 -24.81970501 202.38308287 C-27.91644932 199.27384007 -31.01885445 196.17025626 -34.1206665 193.06607056 C-39.99297582 187.18754389 -45.86016807 181.30393733 -51.72554421 175.41849387 C-58.40354662 168.71814043 -65.08722572 162.02346192 -71.77139044 155.32925677 C-85.52059148 141.55914795 -99.26263862 127.78191984 -113 114 C-107.85042578 107.76734076 -102.2203721 102.0853018 -96.49658203 96.38305664 C-95.44130823 95.32806536 -94.38625547 94.27285294 -93.33140564 93.21743774 C-90.48491224 90.37065894 -87.63535925 87.52696106 -84.78522348 84.68382955 C-81.80056205 81.70544451 -78.81875638 78.72420316 -75.8366394 75.74327087 C-70.19708118 70.10681337 -64.55498002 64.47290855 -58.91194808 58.83992904 C-52.48431277 52.42349406 -46.05953682 46.00419923 -39.63499284 39.58466923 C-26.42649513 26.38660739 -13.21443242 13.19211963 0 0 Z " fill="#F58634" transform="translate(414,384)"/>
</svg>
